<?xml version="1.0" encoding="UTF-8" standalone="no"?>
<svg
   viewBox="0 0 48 48"
   version="1.1"
   id="svg2"
   xmlns="http://www.w3.org/2000/svg"
   xmlns:svg="http://www.w3.org/2000/svg"
   xmlns:rdf="http://www.w3.org/1999/02/22-rdf-syntax-ns#"
   xmlns:cc="http://creativecommons.org/ns#"
   xmlns:dc="http://purl.org/dc/elements/1.1/">
  <defs
     id="defs1">
    <style
       id="style1">.cls-1{fill:#fff;}.cls-2{fill:none;}</style>
  </defs>
  <title
     id="title1">question</title>
  <g
     id="Icons">
    <path
       class="cls-1"
       d="M22,26.73a5.26,5.26,0,0,1,.08-2.07,6.8,6.8,0,0,1,.69-1.73,9.42,9.42,0,0,1,1-1.46c.39-.45.75-.89,1.1-1.32a9.25,9.25,0,0,0,.86-1.28,2.74,2.74,0,0,0,.35-1.35A2.36,2.36,0,0,0,23.59,15a3.46,3.46,0,0,0-1.76.44,6,6,0,0,0-1.48,1.19l-2-1.85a8.8,8.8,0,0,1,2.47-2A6.72,6.72,0,0,1,24,12.05a7.5,7.5,0,0,1,2.27.33,4.78,4.78,0,0,1,1.77,1A4.65,4.65,0,0,1,29.23,15a5.49,5.49,0,0,1,.43,2.26,4.4,4.4,0,0,1-.36,1.81,8.1,8.1,0,0,1-.9,1.52A15.42,15.42,0,0,1,27.25,22a13,13,0,0,0-1.1,1.38,7.43,7.43,0,0,0-.78,1.54,3.75,3.75,0,0,0-.17,1.82Zm1.6,7.14a2.2,2.2,0,0,1-1.66-.7,2.43,2.43,0,0,1-.66-1.76A2.46,2.46,0,0,1,22,29.65,2.2,2.2,0,0,1,23.62,29a2.29,2.29,0,0,1,1.69.69A2.43,2.43,0,0,1,26,31.41a2.4,2.4,0,0,1-.67,1.76A2.3,2.3,0,0,1,23.62,33.87Z"
       id="path1" />
    <rect
       class="cls-2"
       x="6"
       y="6"
       width="36"
       height="36"
       id="rect1" />
    <path
       class="cls-1"
       d="M24,7A17,17,0,1,1,7,24,17,17,0,0,1,24,7m0-1A18,18,0,1,0,42,24,18,18,0,0,0,24,6Z"
       id="path2" />
  </g>
  <metadata
     id="metadata2">
    <rdf:RDF>
      <cc:Work
         rdf:about="">
        <dc:title>question</dc:title>
      </cc:Work>
    </rdf:RDF>
  </metadata>
</svg>
