<?xml version="1.0" encoding="UTF-8" standalone="no"?>
<!-- Generator: Adobe Illustrator 18.0.0, SVG Export Plug-In . SVG Version: 6.00 Build 0)  -->

<svg
   version="1.1"
   id="Capa_1"
   x="0px"
   y="0px"
   viewBox="0 0 300 300"
   xml:space="preserve"
   width="300"
   height="300"
   xmlns="http://www.w3.org/2000/svg"
   xmlns:svg="http://www.w3.org/2000/svg"
   xmlns:rdf="http://www.w3.org/1999/02/22-rdf-syntax-ns#"
   xmlns:cc="http://creativecommons.org/ns#"
   xmlns:dc="http://purl.org/dc/elements/1.1/"><metadata
     id="metadata47"><rdf:RDF><cc:Work
         rdf:about=""><dc:format>image/svg+xml</dc:format><dc:type
           rdf:resource="http://purl.org/dc/dcmitype/StillImage" /></cc:Work></rdf:RDF></metadata><defs
     id="defs45" /><g
     id="g3"><g
       id="g1"><path
         d="m 214.35848,148.63943 c -25.11516,-25.09924 -58.491,-39.83524 -93.9809,-41.4932 l -8.27246,-0.386 2.97502,7.72306 c 5.1913,13.47584 11.81162,26.44289 19.67719,38.54266 7.87539,12.11254 17.04223,23.42458 27.24791,33.6228 l 13.29372,13.28529 H 67.554535 v -59.47342 l -11.948232,11.00166 -0.160201,0.15322 c -1.973518,1.97227 -4.59865,3.05859 -7.391846,3.05859 -2.793195,0 -5.418328,-1.08632 -7.394793,-3.06153 -1.976466,-1.97227 -3.064456,-4.59475 -3.064456,-7.38421 0,-2.78946 1.08799,-5.41194 3.069371,-7.38715 l 22.012385,-22.01021 -2.006934,-3.56933 C 51.148198,94.330438 33.175232,83.813 13.76439,83.813 H 8.3588392 v 144.2042 c -2.7902471,6.08083 -4.3588397,12.83348 -4.3588397,19.94954 0.006,24.96284 18.2915805,48.11576 48.0622275,48.03271 H 247.93679 c 26.50292,0 48.06321,-21.5466 48.06321,-48.03271 0,-13.67718 -5.75053,-26.03626 -14.96257,-34.79161 -0.54645,-0.52155 -66.67895,-64.5357 -66.67895,-64.5357 z m -44.70881,30.36974 c -9.67201,-9.66685 -18.36217,-20.38859 -25.82478,-31.86957 -5.8832,-9.04904 -11.03224,-18.61178 -15.35962,-28.51926 29.56049,3.31592 57.08556,16.50789 78.30382,37.71269 l 45.06755,43.7719 c -1.2875,-0.1041 -2.58483,-0.17188 -3.89887,-0.17188 H 190.58782 Z M 49.097037,113.12491 33.021911,129.19867 c -4.022713,4.01328 -6.238006,9.35156 -6.238006,15.02968 0,5.6791 2.215293,11.0164 6.234075,15.02674 4.01485,4.01328 9.355534,6.22324 15.036276,6.22324 3.043817,0 5.991317,-0.6345 8.688195,-1.84163 v 36.29734 h -4.680224 c -12.716805,0 -24.287632,4.97093 -32.893269,13.05839 V 94.96003 c 12.057327,1.53322 22.972609,8.13854 29.928079,18.16488 z M 247.93777,285.19522 H 52.06321 c -20.541094,0 -37.252109,-16.70042 -37.252109,-37.22848 0,-20.52707 16.711015,-37.22748 37.252109,-37.22748 h 195.87456 c 20.54109,0 37.25211,16.70041 37.25211,37.22748 0,20.52806 -16.71102,37.22848 -37.25211,37.22848 z"
         id="path5"
         style="fill:#ffffff;fill-opacity:1;stroke-width:0.982512" /><path
         d="m 203.98376,162.48261 -8.06213,-7.51975 c -4.36474,-4.07124 -11.2062,-3.83551 -15.281,0.52646 l 23.86993,22.26459 c 4.0748,-4.36197 3.83892,-11.20007 -0.5268,-15.2713 z"
         id="path7"
         style="fill:#ffffff;fill-opacity:1;stroke-width:0.982512" /><path
         d="m 246.21193,217.89167 c -2.98486,0 -5.40556,2.41819 -5.40556,5.40211 0,2.98394 2.4207,5.40213 5.40556,5.40213 10.66859,0 19.3499,8.67482 19.3499,19.33762 0,10.66281 -8.68033,19.33763 -19.3499,19.33763 -2.98486,0 -5.40556,2.41818 -5.40556,5.40212 0,2.98394 2.4207,5.40212 5.40556,5.40212 16.63042,0 30.16101,-13.522 30.16101,-30.14187 0,-16.61987 -13.53059,-30.14186 -30.16101,-30.14186 z"
         id="path9"
         style="fill:#ffffff;fill-opacity:1;stroke-width:0.982512" /><path
         d="m 53.600352,228.69591 c 2.98583,0 5.40555,-2.41819 5.40555,-5.40213 0,-2.98392 -2.41972,-5.40211 -5.40555,-5.40211 -16.630424,0 -30.161009,13.52199 -30.161009,30.14186 0,16.61987 13.529603,30.14187 30.161009,30.14187 2.98583,0 5.40555,-2.41818 5.40555,-5.40212 0,-2.98394 -2.41972,-5.40212 -5.40555,-5.40212 -10.669575,0 -19.349906,-8.67482 -19.349906,-19.33763 0,-10.6628 8.680331,-19.33762 19.349906,-19.33762 z"
         id="path11"
         style="fill:#ffffff;fill-opacity:1;stroke-width:0.982512" /></g></g><g
     id="g13" /><g
     id="g15" /><g
     id="g17" /><g
     id="g19" /><g
     id="g21" /><g
     id="g23" /><g
     id="g25" /><g
     id="g27" /><g
     id="g29" /><g
     id="g31" /><g
     id="g33" /><g
     id="g35" /><g
     id="g37" /><g
     id="g39" /><g
     id="g41" /></svg>
