<?xml version="1.0" encoding="UTF-8" standalone="no"?>
<svg
   viewBox="0 0 16 16"
   version="1.1"
   id="svg2"
   width="16"
   height="16"
   xmlns="http://www.w3.org/2000/svg"
   xmlns:svg="http://www.w3.org/2000/svg"
   xmlns:rdf="http://www.w3.org/1999/02/22-rdf-syntax-ns#"
   xmlns:cc="http://creativecommons.org/ns#"
   xmlns:dc="http://purl.org/dc/elements/1.1/">
  <defs
     id="defs1">
    <style
       id="style1">.cls-1{fill:none;}.cls-2{fill:#c78b07;}</style>
  </defs>
  <title
     id="title1">grid_on_pressed</title>
  <path
     class="cls-2"
     d="M 14,0.5 H 2 A 1.5041667,1.5041667 0 0 0 0.5,2 V 14 A 1.5041667,1.5041667 0 0 0 2,15.5 H 14 A 1.5041667,1.5041667 0 0 0 15.5,14 V 2 A 1.5041667,1.5041667 0 0 0 14,0.5 Z M 5,14 H 2 V 11 H 5 Z M 5,9.5 H 2 v -3 H 5 Z M 5,5 H 2 V 2 h 3 z m 4.5,9 h -3 v -3 h 3 z m 0,-4.5 h -3 v -3 h 3 z M 9.5,5 h -3 V 2 h 3 z m 4.5,9 h -3 v -3 h 3 z m 0,-4.5 h -3 v -3 h 3 z M 14,5 H 11 V 2 h 3 z"
     id="path2"
     style="stroke-width:0.416667;fill:#ffffff;fill-opacity:1" />
  <metadata
     id="metadata2">
    <rdf:RDF>
      <cc:Work
         rdf:about="">
        <dc:title>grid_on_pressed</dc:title>
      </cc:Work>
    </rdf:RDF>
  </metadata>
</svg>
