<?xml version="1.0" encoding="UTF-8" standalone="no"?>
<!-- Generator: Adobe Illustrator 16.0.0, SVG Export Plug-In . SVG Version: 6.00 Build 0)  -->

<svg
   version="1.1"
   id="Layer_1"
   x="0px"
   y="0px"
   width="16"
   height="16"
   viewBox="0 0 16 16"
   enable-background="new 0 0 512 512"
   xml:space="preserve"
   xmlns="http://www.w3.org/2000/svg"
   xmlns:svg="http://www.w3.org/2000/svg"
   xmlns:rdf="http://www.w3.org/1999/02/22-rdf-syntax-ns#"
   xmlns:cc="http://creativecommons.org/ns#"
   xmlns:dc="http://purl.org/dc/elements/1.1/"><metadata
   id="metadata13"><rdf:RDF><cc:Work
       rdf:about=""><dc:format>image/svg+xml</dc:format><dc:type
         rdf:resource="http://purl.org/dc/dcmitype/StillImage" /></cc:Work></rdf:RDF></metadata><defs
   id="defs11" />
<g
   id="g6"
   style="fill:#ffffff;fill-opacity:1;stroke:none;stroke-opacity:1"
   transform="matrix(0.02929687,0,0,0.02929688,0.49997198,0.49999872)">
	<path
   d="m 448,256 c 0,-12 -1.25,-23.656 -3.344,-35.031 l 65.031,-37.531 -64,-110.875 -65.031,37.563 C 362.938,95 342.406,83.094 320,75.156 V 0 H 192 V 75.156 C 169.594,83.094 149.062,95 131.344,110.125 L 66.313,72.563 2.313,183.438 67.344,221 C 65.25,232.344 64,244 64,256 c 0,11.969 1.25,23.625 3.344,35 l -65.031,37.563 64,110.875 65.063,-37.563 c 17.719,15.156 38.219,27.031 60.625,34.969 V 512 h 128 v -75.156 c 22.406,-7.938 42.938,-19.813 60.625,-34.969 l 65.063,37.563 64,-110.875 -65.031,-37.531 C 446.75,279.656 448,267.969 448,256 Z m 17.969,84.281 -32,55.438 L 396.625,374.156 377,362.844 359.812,377.563 c -14.813,12.719 -31.813,22.5 -50.5,29.125 L 288,414.219 V 436.844 480 h -64 v -43.156 -22.625 l -21.313,-7.531 c -18.656,-6.625 -35.625,-16.406 -50.5,-29.125 L 135,362.844 115.375,374.157 78.031,395.72 46,340.281 83.344,318.718 102.907,307.405 98.813,285.186 C 96.938,274.938 96,265.375 96,256 c 0,-9.375 0.938,-18.938 2.813,-29.188 L 102.907,204.593 83.344,193.312 46,171.75 l 32.031,-55.469 37.313,21.531 19.594,11.313 17.188,-14.656 c 14.938,-12.75 31.938,-22.531 50.563,-29.156 L 224,97.75 V 75.156 32 h 64 V 75.156 97.75 l 21.313,7.563 c 18.625,6.625 35.656,16.406 50.563,29.156 l 17.219,14.656 19.563,-11.313 37.313,-21.531 32,55.438 -37.313,21.531 -19.563,11.313 4.094,22.188 C 415.094,237.063 416,246.625 416,256 c 0,9.375 -0.906,18.938 -2.813,29.25 l -4.094,22.219 19.563,11.281 z"
   id="path2"
   style="fill:#ffffff;fill-opacity:1;stroke:none;stroke-opacity:1" />
	<path
   d="m 256,192 c 35.281,0 64,28.688 64,64 0,35.281 -28.719,64 -64,64 -35.313,0 -64,-28.719 -64,-64 0,-35.312 28.688,-64 64,-64 m 0,-32 c -53,0 -96,43 -96,96 0,53 43,96 96,96 53,0 96,-43 96,-96 0,-53 -43,-96 -96,-96 z"
   id="path4"
   style="fill:#ffffff;fill-opacity:1;stroke:none;stroke-opacity:1" />
</g>
</svg>
