<?xml version="1.0" encoding="UTF-8" standalone="no"?>
<svg
   viewBox="0 0 16 16"
   version="1.1"
   id="svg1"
   sodipodi:docname="MenuIconSnap.svg"
   width="16"
   height="16"
   inkscape:version="1.4.2 (f4327f4, 2025-05-13)"
   xmlns:inkscape="http://www.inkscape.org/namespaces/inkscape"
   xmlns:sodipodi="http://sodipodi.sourceforge.net/DTD/sodipodi-0.dtd"
   xmlns="http://www.w3.org/2000/svg"
   xmlns:svg="http://www.w3.org/2000/svg"
   xmlns:rdf="http://www.w3.org/1999/02/22-rdf-syntax-ns#"
   xmlns:cc="http://creativecommons.org/ns#"
   xmlns:dc="http://purl.org/dc/elements/1.1/">
  <sodipodi:namedview
     id="namedview1"
     pagecolor="#ffffff"
     bordercolor="#000000"
     borderopacity="0.25"
     inkscape:showpageshadow="2"
     inkscape:pageopacity="0.0"
     inkscape:pagecheckerboard="0"
     inkscape:deskcolor="#d1d1d1"
     inkscape:zoom="38.270833"
     inkscape:cx="24"
     inkscape:cy="24"
     inkscape:window-width="3840"
     inkscape:window-height="2054"
     inkscape:window-x="2869"
     inkscape:window-y="-11"
     inkscape:window-maximized="1"
     inkscape:current-layer="svg1" />
  <defs
     id="defs1">
    <style
       id="style1">.cls-1{fill:#999a9a;}.cls-2{fill:none;}</style>
  </defs>
  <title
     id="title1">snap</title>
  <path
     class="cls-1"
     d="M 13.40606,6.8779731 8.6946967,11.589336 a 3.122213,3.122213 0 0 1 -2.1687228,0.897403 2.8305572,2.8305572 0 0 1 -2.0939392,-0.897403 2.9913418,2.9913418 0 0 1 0,-4.2626617 L 9.1433987,2.615311 7.0494587,0.52137176 2.2633118,5.3075187 A 5.9452918,5.9452918 0 0 0 6.5259739,15.478081 6.3266879,6.3266879 0 0 0 10.788636,13.758059 L 15.5,9.0466958 Z M 10.115584,13.085007 A 5.0778027,5.0778027 0 1 1 2.9363638,5.905787 l 2.8417746,-2.7669911 0.822619,0.822619 -2.8417747,2.8417747 a 3.9747454,3.9747454 0 0 0 0,5.5339824 3.840135,3.840135 0 0 0 2.7669912,1.121753 3.840135,3.840135 0 0 0 2.7669908,-1.121753 L 12.13474,9.4953978 12.95736,10.318016 Z"
     id="path1"
     style="stroke-width:0.373918;fill:#ffffff;fill-opacity:1" />
  <metadata
     id="metadata1">
    <rdf:RDF>
      <cc:Work
         rdf:about="">
        <dc:title>snap</dc:title>
      </cc:Work>
    </rdf:RDF>
  </metadata>
</svg>
