<?xml version="1.0" encoding="UTF-8" standalone="no"?>
<!-- Created with Inkscape (http://www.inkscape.org/) -->

<svg
   version="1.1"
   width="32"
   height="32"
   id="svg25946"
   xmlns="http://www.w3.org/2000/svg"
   xmlns:svg="http://www.w3.org/2000/svg"
   xmlns:rdf="http://www.w3.org/1999/02/22-rdf-syntax-ns#"
   xmlns:cc="http://creativecommons.org/ns#"
   xmlns:dc="http://purl.org/dc/elements/1.1/">
  <defs
     id="defs25948" />
  <metadata
     id="metadata25951">
    <rdf:RDF>
      <cc:Work
         rdf:about="">
        <dc:format>image/svg+xml</dc:format>
        <dc:type
           rdf:resource="http://purl.org/dc/dcmitype/StillImage" />
      </cc:Work>
    </rdf:RDF>
  </metadata>
  <g
     transform="translate(-135.8595,-153.0055)"
     id="layer1">
    <path
       d="m 147.44829,177.96996 c -0.16673,-0.0828 -1.63475,-1.55078 -1.71431,-1.71436 -0.0527,-0.10841 -0.0593,-0.17342 -0.0504,-0.50025 0.008,-0.31 0.0213,-0.39715 0.0741,-0.49871 0.0743,-0.14285 0.65558,-0.71252 1.07064,-1.04921 0.91266,-0.74031 2.11223,-1.32335 3.25769,-1.5834 0.63212,-0.1435 1.00752,-0.18204 1.77362,-0.18204 0.76609,0 1.1415,0.0385 1.7736,0.18204 1.14537,0.26002 2.34416,0.84266 3.25786,1.5834 0.46877,0.38004 1.01882,0.92804 1.0767,1.07269 0.0643,0.16075 0.0927,0.77683 0.0428,0.93156 -0.048,0.14899 -1.55806,1.67163 -1.74504,1.75951 -0.16934,0.0796 -0.4627,0.0816 -0.63298,0.005 -0.0725,-0.0329 -0.203,-0.14616 -0.31834,-0.27618 -0.26769,-0.30177 -0.68653,-0.64472 -1.06737,-0.87395 -1.69516,-1.02032 -3.84334,-0.85126 -5.36974,0.42259 -0.15221,0.12704 -0.36473,0.33014 -0.47226,0.45136 -0.11534,0.13002 -0.24585,0.24326 -0.31833,0.27618 -0.16926,0.0769 -0.47761,0.0742 -0.63826,-0.006 z m -4.41129,-4.38977 c -0.15881,-0.0805 -1.71779,-1.6548 -1.7573,-1.77455 -0.0182,-0.055 -0.0279,-0.25603 -0.0223,-0.45991 0.008,-0.29502 0.0217,-0.3847 0.0731,-0.48385 0.1223,-0.23527 1.2379,-1.2701 1.96692,-1.82452 1.16291,-0.88439 2.73564,-1.70394 4.14308,-2.15895 3.16656,-1.02373 6.61996,-0.91442 9.67925,0.30638 1.13535,0.45306 2.37972,1.15121 3.30195,1.85257 0.72903,0.55442 1.84463,1.58925 1.96693,1.82452 0.0515,0.0992 0.0651,0.18883 0.0731,0.48385 0.006,0.20437 -0.005,0.40484 -0.0224,0.46015 -0.0427,0.12944 -1.63329,1.72498 -1.78122,1.78681 -0.13785,0.0576 -0.42994,0.0557 -0.57848,-0.004 -0.0797,-0.0319 -0.21946,-0.1557 -0.42589,-0.37728 -1.08585,-1.16558 -2.66039,-2.16313 -4.2852,-2.71494 -1.18163,-0.4013 -2.22428,-0.57094 -3.50899,-0.57094 -1.28472,0 -2.32737,0.16964 -3.509,0.57094 -1.62482,0.55181 -3.19935,1.54936 -4.28521,2.71494 -0.20642,0.22158 -0.34619,0.3454 -0.42588,0.37728 -0.1601,0.064 -0.46769,0.0595 -0.60248,-0.008 z m -4.4416,-4.46001 c -0.17595,-0.0801 -1.66253,-1.58543 -1.7094,-1.73096 -0.0208,-0.0647 -0.0308,-0.25264 -0.0248,-0.46993 0.008,-0.29476 0.0217,-0.38471 0.073,-0.48342 0.0933,-0.1793 1.05263,-1.10232 1.76729,-1.70038 2.93947,-2.45992 6.46123,-4.03607 10.2172,-4.57269 1.15036,-0.16436 1.46551,-0.18409 2.94085,-0.18409 1.47536,0 1.79049,0.0198 2.94086,0.18409 3.75595,0.53662 7.27772,2.11277 10.21718,4.57269 0.71467,0.59806 1.674,1.52108 1.7673,1.70038 0.0514,0.0987 0.065,0.18866 0.073,0.48342 0.006,0.21729 -0.005,0.40526 -0.0248,0.46993 -0.05,0.1552 -1.53579,1.6527 -1.71948,1.73301 -0.17601,0.077 -0.46296,0.0753 -0.6369,-0.004 -0.0842,-0.0382 -0.30841,-0.23259 -0.62153,-0.53875 -1.33134,-1.30174 -2.64349,-2.24526 -4.26453,-3.06647 -2.00549,-1.01595 -3.99169,-1.57605 -6.3668,-1.79541 -0.88673,-0.0818 -2.47884,-0.0442 -3.50173,0.083 -1.95382,0.24292 -3.8218,0.81477 -5.59369,1.71239 -1.62103,0.8212 -2.93318,1.76471 -4.26454,3.06646 -0.31312,0.30615 -0.53742,0.50059 -0.62152,0.53875 -0.1709,0.0775 -0.47842,0.0783 -0.64699,0.002 z"
       id="path26127"
       style="fill:#ffffff;stroke:none;stroke-width:0.937507;fill-opacity:1" />
  </g>
</svg>
