<?xml version="1.0" encoding="UTF-8" standalone="no"?>
<svg
   viewBox="0 0 16 16"
   version="1.1"
   id="svg4"
   width="16"
   height="16"
   xmlns="http://www.w3.org/2000/svg"
   xmlns:svg="http://www.w3.org/2000/svg"
   xmlns:rdf="http://www.w3.org/1999/02/22-rdf-syntax-ns#"
   xmlns:cc="http://creativecommons.org/ns#"
   xmlns:dc="http://purl.org/dc/elements/1.1/">
  <defs
     id="defs1">
    <style
       id="style1">.cls-1{fill:#c78b07;}</style>
  </defs>
  <title
     id="title1">print_pressed</title>
  <g
     id="g7">
    <path
       class="cls-1"
       d="M 11.096893,11.596797 H 4.5842191 a 0.31275552,0.40800008 0 0 0 0,0.8 h 6.5126739 a 0.31275552,0.40800008 0 0 0 0,-0.8 z"
       id="path1"
       style="fill:#ffffff;fill-opacity:1;stroke-width:0.913729;stroke-dasharray:none" />
    <path
       class="cls-1"
       d="M 11.096893,9.0334285 H 4.5842191 a 0.31888798,0.41600001 0 0 0 0,0.8 h 6.5126739 a 0.31888798,0.41600001 0 0 0 0,-0.8 z"
       id="path2"
       style="fill:#ffffff;fill-opacity:1;stroke-width:0.913729;stroke-dasharray:none" />
    <path
       class="cls-1"
       d="M 11.096893,6.421 H 4.5842191 a 0.31275552,0.40000003 0 0 0 -0.3127555,0.4 0.31275552,0.40000003 0 0 0 0.3127555,0.4 h 6.5126739 a 0.31275552,0.40000003 0 0 0 0.312755,-0.4 0.31275552,0.40000003 0 0 0 -0.312755,-0.4 z"
       id="path3"
       style="fill:#ffffff;fill-opacity:1;stroke-width:0.904727;stroke-dasharray:none" />
    <path
       id="path6"
       style="fill:none;stroke:#ffffff;stroke-width:0.8;stroke-linecap:round;stroke-linejoin:round;stroke-dasharray:none;stroke-opacity:1"
       d="M 13.488553,3.7624694 10.526574,3.7327208 V 0.80662306 M 13.488553,15.193377 V 3.7624694 L 10.526574,0.80662306 H 2.5114473 V 15.17498 Z" />
  </g>
  <metadata
     id="metadata6">
    <rdf:RDF>
      <cc:Work
         rdf:about="">
        <dc:title>print_pressed</dc:title>
      </cc:Work>
    </rdf:RDF>
  </metadata>
</svg>
