<?xml version="1.0" encoding="UTF-8" standalone="no"?>
<!-- Generator: Adobe Illustrator 18.0.0, SVG Export Plug-In . SVG Version: 6.00 Build 0)  -->

<svg
   xmlns:dc="http://purl.org/dc/elements/1.1/"
   xmlns:cc="http://creativecommons.org/ns#"
   xmlns:rdf="http://www.w3.org/1999/02/22-rdf-syntax-ns#"
   xmlns:svg="http://www.w3.org/2000/svg"
   xmlns="http://www.w3.org/2000/svg"
   xmlns:sodipodi="http://sodipodi.sourceforge.net/DTD/sodipodi-0.dtd"
   xmlns:inkscape="http://www.inkscape.org/namespaces/inkscape"
   version="1.1"
   id="Capa_1"
   x="0px"
   y="0px"
   viewBox="0 0 311.10199 230.03122"
   xml:space="preserve"
   inkscape:version="0.91 r13725"
   sodipodi:docname="SystemTrayIcon.svg"
   width="311.10199"
   height="230.03122"><metadata
     id="metadata47"><rdf:RDF><cc:Work
         rdf:about=""><dc:format>image/svg+xml</dc:format><dc:type
           rdf:resource="http://purl.org/dc/dcmitype/StillImage" /><dc:title></dc:title></cc:Work></rdf:RDF></metadata><defs
     id="defs45" /><sodipodi:namedview
     pagecolor="#ffffff"
     bordercolor="#666666"
     borderopacity="1"
     objecttolerance="10"
     gridtolerance="10"
     guidetolerance="10"
     inkscape:pageopacity="0"
     inkscape:pageshadow="2"
     inkscape:window-width="1920"
     inkscape:window-height="1028"
     id="namedview43"
     showgrid="false"
     inkscape:zoom="1.3853871"
     inkscape:cx="161.55184"
     inkscape:cy="39.414194"
     inkscape:window-x="1912"
     inkscape:window-y="-8"
     inkscape:window-maximized="1"
     inkscape:current-layer="Capa_1"
     fit-margin-top="5"
     fit-margin-right="5"
     fit-margin-left="5"
     fit-margin-bottom="5" /><path
     style="fill:#323232;fill-opacity:1;stroke:#ffffff;stroke-width:10;stroke-miterlimit:4;stroke-dasharray:none;stroke-opacity:1;stroke-linejoin:miter"
     d="M 221.034,73.001 C 195.48,47.447 161.521,32.444 125.411,30.756 l -8.417,-0.393 3.027,7.863 c 5.282,13.72 12.018,26.922 20.021,39.241 8.013,12.332 17.34,23.849 27.724,34.232 l 13.526,13.526 -109.627,0 0,-60.551 -12.157,11.201 -0.163,0.156 c -2.008,2.008 -4.679,3.114 -7.521,3.114 -2.842,0 -5.513,-1.106 -7.524,-3.117 -2.011,-2.008 -3.118,-4.678 -3.118,-7.518 0,-2.84 1.107,-5.51 3.123,-7.521 L 66.702,38.58 64.66,34.946 C 54.972,17.708 36.685,7 16.935,7 l -5.5,0 0,146.817 C 8.596,160.008 7,166.883 7,174.128 c 0.0061,25.41513 18.611182,48.98756 48.902,48.903 l 199.297,0 c 26.966,0 48.903,-21.937 48.903,-48.903 0,-13.925 -5.851,-26.508 -15.224,-35.422 -0.556,-0.531 -67.844,-65.705 -67.844,-65.705 z"
     id="path4170"
     inkscape:connector-curvature="0" /><g
     id="g13"
     transform="translate(-36.596,-39.59)" /><g
     id="g15"
     transform="translate(-36.596,-39.59)" /><g
     id="g17"
     transform="translate(-36.596,-39.59)" /><g
     id="g19"
     transform="translate(-36.596,-39.59)" /><g
     id="g21"
     transform="translate(-36.596,-39.59)" /><g
     id="g23"
     transform="translate(-36.596,-39.59)" /><g
     id="g25"
     transform="translate(-36.596,-39.59)" /><g
     id="g27"
     transform="translate(-36.596,-39.59)" /><g
     id="g29"
     transform="translate(-36.596,-39.59)" /><g
     id="g31"
     transform="translate(-36.596,-39.59)" /><g
     id="g33"
     transform="translate(-36.596,-39.59)" /><g
     id="g35"
     transform="translate(-36.596,-39.59)" /><g
     id="g37"
     transform="translate(-36.596,-39.59)" /><g
     id="g39"
     transform="translate(-36.596,-39.59)" /><g
     id="g41"
     transform="translate(-36.596,-39.59)" /></svg>